{
	"asset":{
		"version":"2.0",
		"generator":"Houdini GLTF 2.0 Exporter"
	},
	"accessors":[
		{
			"bufferView":0,
			"componentType":5123,
			"count":28974,
			"type":"SCALAR",
			"min":[0
			],
			"max":[19317
			]
		},
		{
			"bufferView":1,
			"componentType":5126,
			"count":19318,
			"type":"VEC3",
			"min":[-14.5,-15.7049999,-11.5
			],
			"max":[13.8000002,15.6000004,11.9499998
			]
		},
		{
			"bufferView":2,
			"componentType":5126,
			"count":19318,
			"type":"VEC3",
			"min":[-1,0,-6.36295709e-08
			],
			"max":[6.29255581e-08,1,6.36295709e-08
			]
		},
		{
			"bufferView":3,
			"componentType":5126,
			"count":19318,
			"type":"VEC2",
			"min":[0,0
			],
			"max":[1,1
			]
		},
		{
			"bufferView":4,
			"componentType":5126,
			"count":19318,
			"type":"VEC2",
			"min":[0,0.000999987125
			],
			"max":[0.999511719,1
			]
		},
		{
			"bufferView":5,
			"componentType":5126,
			"count":19318,
			"type":"VEC4",
			"min":[0,-1,-1,1
			],
			"max":[1,1,1,1
			]
		}
	],
	"buffers":[
		{
			"uri":"particles_simulation_mesh_100F_data.bin",
			"byteLength":1139756
		}
	],
	"bufferViews":[
		{
			"buffer":0,
			"byteLength":57948,
			"target":34963
		},
		{
			"buffer":0,
			"byteOffset":57948,
			"byteLength":231816,
			"target":34962
		},
		{
			"buffer":0,
			"byteOffset":289764,
			"byteLength":231816,
			"target":34962
		},
		{
			"buffer":0,
			"byteOffset":521580,
			"byteLength":154544,
			"target":34962
		},
		{
			"buffer":0,
			"byteOffset":676124,
			"byteLength":154544,
			"target":34962
		},
		{
			"buffer":0,
			"byteOffset":830668,
			"byteLength":309088,
			"target":34962
		}
	],
	"nodes":[
		{
			"mesh":0
		}
	],
	"meshes":[
		{
			"primitives":[
				{
					"attributes":{
						"TANGENT":5,
						"TEXCOORD_1":4,
						"TEXCOORD_0":3,
						"NORMAL":2,
						"POSITION":1
					},
					"indices":0
				}
			]
		}
	],
	"scenes":[
		{
			"nodes":[0
			]
		}
	],
	"scene":0
}
