{
	"asset":{
		"version":"2.0",
		"generator":"Houdini GLTF 2.0 Exporter"
	},
	"accessors":[
		{
			"bufferView":0,
			"componentType":5125,
			"count":61200,
			"type":"SCALAR",
			"min":[0
			],
			"max":[61199
			]
		},
		{
			"bufferView":1,
			"componentType":5126,
			"count":61200,
			"type":"VEC3",
			"min":[-9.10000038,-7.3300004,-6.30000019
			],
			"max":[6.03000021,3.29999995,5.55000019
			]
		},
		{
			"bufferView":2,
			"componentType":5126,
			"count":61200,
			"type":"VEC3",
			"min":[-1,0,-5.97748482e-08
			],
			"max":[5.9758051e-08,1,5.97748482e-08
			]
		},
		{
			"bufferView":3,
			"componentType":5126,
			"count":61200,
			"type":"VEC2",
			"min":[0,0.000166654587
			],
			"max":[0.999755859,1
			]
		},
		{
			"bufferView":4,
			"componentType":5126,
			"count":61200,
			"type":"VEC2",
			"min":[0,1
			],
			"max":[0,1
			]
		},
		{
			"bufferView":5,
			"componentType":5126,
			"count":61200,
			"type":"VEC4",
			"min":[0,-1,-1,1
			],
			"max":[1,1,1,1
			]
		}
	],
	"buffers":[
		{
			"uri":"fluidSimulation_mesh_100F_data.bin",
			"byteLength":3672000
		}
	],
	"bufferViews":[
		{
			"buffer":0,
			"byteLength":244800,
			"target":34963
		},
		{
			"buffer":0,
			"byteOffset":244800,
			"byteLength":734400,
			"target":34962
		},
		{
			"buffer":0,
			"byteOffset":979200,
			"byteLength":734400,
			"target":34962
		},
		{
			"buffer":0,
			"byteOffset":1713600,
			"byteLength":489600,
			"target":34962
		},
		{
			"buffer":0,
			"byteOffset":2203200,
			"byteLength":489600,
			"target":34962
		},
		{
			"buffer":0,
			"byteOffset":2692800,
			"byteLength":979200,
			"target":34962
		}
	],
	"nodes":[
		{
			"mesh":0
		}
	],
	"meshes":[
		{
			"primitives":[
				{
					"attributes":{
						"TANGENT":5,
						"TEXCOORD_1":4,
						"TEXCOORD_0":3,
						"NORMAL":2,
						"POSITION":1
					},
					"indices":0
				}
			]
		}
	],
	"scenes":[
		{
			"nodes":[0
			]
		}
	],
	"scene":0
}
