{
	"asset":{
		"version":"2.0",
		"generator":"Houdini GLTF 2.0 Exporter"
	},
	"accessors":[
		{
			"bufferView":0,
			"componentType":5125,
			"count":346350,
			"type":"SCALAR",
			"min":[0
			],
			"max":[154998
			]
		},
		{
			"bufferView":1,
			"componentType":5126,
			"count":154999,
			"type":"VEC3",
			"min":[-2.70000005,-0.300999999,-3.29999995
			],
			"max":[3,2.5,9.25
			]
		},
		{
			"bufferView":2,
			"componentType":5126,
			"count":154999,
			"type":"VEC2",
			"min":[0,0.00499999523
			],
			"max":[0.999080896,1
			]
		},
		{
			"bufferView":3,
			"componentType":5126,
			"count":154999,
			"type":"VEC2",
			"min":[-1.12969899,0
			],
			"max":[1.12645125,1
			]
		},
		{
			"bufferView":4,
			"componentType":5126,
			"count":154999,
			"type":"VEC3",
			"min":[0.223000005,0.124835402,0.0330040008
			],
			"max":[1,1,1
			]
		},
		{
			"bufferView":5,
			"componentType":5126,
			"count":154999,
			"type":"VEC2",
			"min":[0,-0.123000979
			],
			"max":[2.25439358,1
			]
		},
		{
			"bufferView":6,
			"componentType":5126,
			"count":154999,
			"type":"VEC2",
			"min":[0,0.0275569558
			],
			"max":[0.999985933,1
			]
		},
		{
			"bufferView":7,
			"componentType":5126,
			"count":154999,
			"type":"VEC3",
			"min":[-1,-1,-1
			],
			"max":[1,1,1
			]
		},
		{
			"bufferView":8,
			"componentType":5126,
			"count":154999,
			"type":"VEC4",
			"min":[-1,-1,-1,1
			],
			"max":[1,1,1,1
			]
		},
		{
			"bufferView":9,
			"componentType":5126,
			"count":154999,
			"type":"SCALAR",
			"min":[0
			],
			"max":[0.5
			]
		}
	],
	"buffers":[
		{
			"uri":"rigid_body_simulation_mesh_100F_data.bin",
			"byteLength":15025312
		}
	],
	"bufferViews":[
		{
			"buffer":0,
			"byteLength":1385400,
			"target":34963
		},
		{
			"buffer":0,
			"byteOffset":1385400,
			"byteLength":1859988,
			"target":34962
		},
		{
			"buffer":0,
			"byteOffset":3245388,
			"byteLength":1239992,
			"target":34962
		},
		{
			"buffer":0,
			"byteOffset":4485380,
			"byteLength":1239992,
			"target":34962
		},
		{
			"buffer":0,
			"byteOffset":5725372,
			"byteLength":1859988,
			"target":34962
		},
		{
			"buffer":0,
			"byteOffset":7585360,
			"byteLength":1239992,
			"target":34962
		},
		{
			"buffer":0,
			"byteOffset":8825352,
			"byteLength":1239992,
			"target":34962
		},
		{
			"buffer":0,
			"byteOffset":10065344,
			"byteLength":1859988,
			"target":34962
		},
		{
			"buffer":0,
			"byteOffset":11925332,
			"byteLength":2479984,
			"target":34962
		},
		{
			"buffer":0,
			"byteOffset":14405316,
			"byteLength":619996,
			"target":34962
		}
	],
	"nodes":[
		{
			"mesh":0
		}
	],
	"meshes":[
		{
			"primitives":[
				{
					"attributes":{
						"TANGENT":8,
						"NORMAL":7,
						"TEXCOORD_0":6,
						"TEXCOORD_3":5,
						"COLOR_0":4,
						"TEXCOORD_2":3,
						"_Alpha":9,
						"TEXCOORD_1":2,
						"POSITION":1
					},
					"indices":0
				}
			]
		}
	],
	"scenes":[
		{
			"nodes":[0
			]
		}
	],
	"scene":0
}
