{
	"asset":{
		"version":"2.0",
		"generator":"Houdini GLTF 2.0 Exporter"
	},
	"accessors":[
		{
			"bufferView":0,
			"componentType":5123,
			"count":29622,
			"type":"SCALAR",
			"min":[0
			],
			"max":[5593
			]
		},
		{
			"bufferView":1,
			"componentType":5126,
			"count":5594,
			"type":"VEC3",
			"min":[-8,-14.105999,-5
			],
			"max":[8,-3.19999981,5.04999971
			]
		},
		{
			"bufferView":2,
			"componentType":5126,
			"count":5594,
			"type":"VEC3",
			"min":[0,0,0
			],
			"max":[0,0,0
			]
		},
		{
			"bufferView":3,
			"componentType":5126,
			"count":5594,
			"type":"VEC3",
			"min":[1,1,1
			],
			"max":[1,1,1
			]
		},
		{
			"bufferView":4,
			"componentType":5126,
			"count":5594,
			"type":"VEC3",
			"min":[0,0,0
			],
			"max":[0,0,0
			]
		},
		{
			"bufferView":5,
			"componentType":5126,
			"count":5594,
			"type":"VEC3",
			"min":[-1,0,0
			],
			"max":[0,1,0
			]
		},
		{
			"bufferView":6,
			"componentType":5126,
			"count":5594,
			"type":"VEC2",
			"min":[0,0.375
			],
			"max":[1,1
			]
		},
		{
			"bufferView":7,
			"componentType":5126,
			"count":5594,
			"type":"VEC2",
			"min":[0,0.000833332539
			],
			"max":[0.999511719,1
			]
		},
		{
			"bufferView":8,
			"componentType":5126,
			"count":5594,
			"type":"VEC4",
			"min":[0,-0.00999999978,-0.00999999978,1
			],
			"max":[0.00999999978,0.00999999978,0.00999999978,1
			]
		}
	],
	"buffers":[
		{
			"uri":"Cloth_simumlation_mesh_data.bin",
			"byteLength":573892,
			"name":"main_buffer"
		}
	],
	"bufferViews":[
		{
			"buffer":0,
			"byteLength":59244,
			"target":34963
		},
		{
			"buffer":0,
			"byteOffset":59244,
			"byteLength":67128,
			"target":34962
		},
		{
			"buffer":0,
			"byteOffset":126372,
			"byteLength":67128,
			"target":34962
		},
		{
			"buffer":0,
			"byteOffset":193500,
			"byteLength":67128,
			"target":34962
		},
		{
			"buffer":0,
			"byteOffset":260628,
			"byteLength":67128,
			"target":34962
		},
		{
			"buffer":0,
			"byteOffset":327756,
			"byteLength":67128,
			"target":34962
		},
		{
			"buffer":0,
			"byteOffset":394884,
			"byteLength":44752,
			"target":34962
		},
		{
			"buffer":0,
			"byteOffset":439636,
			"byteLength":44752,
			"target":34962
		},
		{
			"buffer":0,
			"byteOffset":484388,
			"byteLength":89504,
			"target":34962
		}
	],
	"nodes":[
		{
			"name":"cloth_sim",
			"mesh":0
		}
	],
	"meshes":[
		{
			"primitives":[
				{
					"attributes":{
						"TEXCOORD_1":7,
						"TEXCOORD_0":6,
						"NORMAL":5,
						"_fbx_rotation":4,
						"TANGENT":8,
						"_fbx_scale":3,
						"_fbx_translation":2,
						"POSITION":1
					},
					"indices":0
				}
			],
			"name":"transform2"
		}
	],
	"scenes":[
		{
			"nodes":[0
			]
		}
	],
	"scene":0
}
