{
	"asset":{
		"version":"2.0",
		"generator":"Houdini GLTF 2.0 Exporter"
	},
	"accessors":[
		{
			"bufferView":0,
			"componentType":5123,
			"count":29622,
			"type":"SCALAR",
			"min":[0
			],
			"max":[5593
			]
		},
		{
			"bufferView":1,
			"componentType":5126,
			"count":5594,
			"type":"VEC3",
			"min":[-8,-14.1059999,-5
			],
			"max":[8,-3.20000005,5.05000019
			]
		},
		{
			"bufferView":2,
			"componentType":5126,
			"count":5594,
			"type":"VEC3",
			"min":[-1,0,0
			],
			"max":[0,1,0
			]
		},
		{
			"bufferView":3,
			"componentType":5126,
			"count":5594,
			"type":"VEC2",
			"min":[0,0.375
			],
			"max":[1,1
			]
		},
		{
			"bufferView":4,
			"componentType":5126,
			"count":5594,
			"type":"VEC2",
			"min":[0,0.000833332539
			],
			"max":[0.999511719,1
			]
		},
		{
			"bufferView":5,
			"componentType":5126,
			"count":5594,
			"type":"VEC4",
			"min":[0,-1,-1,1
			],
			"max":[1,1,1,1
			]
		}
	],
	"buffers":[
		{
			"uri":"Cloth_simumlation_mesh_mesh_100F_data.bin",
			"byteLength":372508
		}
	],
	"bufferViews":[
		{
			"buffer":0,
			"byteLength":59244,
			"target":34963
		},
		{
			"buffer":0,
			"byteOffset":59244,
			"byteLength":67128,
			"target":34962
		},
		{
			"buffer":0,
			"byteOffset":126372,
			"byteLength":67128,
			"target":34962
		},
		{
			"buffer":0,
			"byteOffset":193500,
			"byteLength":44752,
			"target":34962
		},
		{
			"buffer":0,
			"byteOffset":238252,
			"byteLength":44752,
			"target":34962
		},
		{
			"buffer":0,
			"byteOffset":283004,
			"byteLength":89504,
			"target":34962
		}
	],
	"nodes":[
		{
			"mesh":0
		}
	],
	"meshes":[
		{
			"primitives":[
				{
					"attributes":{
						"TANGENT":5,
						"TEXCOORD_1":4,
						"TEXCOORD_0":3,
						"NORMAL":2,
						"POSITION":1
					},
					"indices":0
				}
			]
		}
	],
	"scenes":[
		{
			"nodes":[0
			]
		}
	],
	"scene":0
}
